<svg width="686" height="134" viewBox="0 0 686 134" fill="none" xmlns="http://www.w3.org/2000/svg">
<path d="M0.000264481 105.436V30.5457H19.6273V43.876H20.5651C22.1281 39.4549 24.7405 35.9716 28.4025 33.4261C32.0644 30.8806 36.4185 29.6079 41.4648 29.6079C46.6004 29.6079 50.9545 30.903 54.5271 33.4931C58.1444 36.0386 60.5559 39.4995 61.7616 43.876H62.5655C64.0838 39.5442 66.8526 36.0832 70.8718 33.4931C74.891 30.903 79.6247 29.6079 85.0729 29.6079C92.0395 29.6079 97.711 31.8184 102.087 36.2395C106.508 40.6606 108.719 46.935 108.719 55.0627V105.436H87.9533V59.2158C87.9533 55.018 86.8368 51.892 84.604 49.8378C82.4158 47.7835 79.6693 46.7564 76.3647 46.7564C72.6134 46.7564 69.666 47.9621 67.5225 50.3737C65.4236 52.7405 64.3741 55.8665 64.3741 59.7517V105.436H44.2782V58.68C44.2782 55.0627 43.2288 52.1823 41.1299 50.0387C39.031 47.8505 36.2845 46.7564 32.8905 46.7564C30.5683 46.7564 28.4918 47.3369 26.6608 48.498C24.8299 49.6591 23.3785 51.2668 22.3067 53.3211C21.2349 55.3306 20.699 57.7422 20.699 60.5556V105.436H0.000264481ZM131.025 133.437C128.391 133.481 125.912 133.303 123.59 132.901C121.312 132.499 119.437 131.985 117.963 131.36L122.652 115.886L123.322 116.02C126.805 117.047 129.775 117.271 132.231 116.69C134.732 116.154 136.63 114.189 137.925 110.795L139.131 107.58L112.336 30.5457H134.107L149.581 85.5415H150.385L166.059 30.5457H187.964L158.892 113.542C157.507 117.561 155.609 121.067 153.198 124.059C150.831 127.051 147.839 129.351 144.222 130.958C140.605 132.611 136.206 133.437 131.025 133.437ZM262.051 30.5457V46.2205H215.897V30.5457H262.051ZM226.481 105.436V25.1198C226.481 19.7163 227.53 15.2282 229.629 11.6556C231.773 8.08297 234.676 5.40352 238.338 3.61721C242.044 1.83091 246.242 0.937762 250.931 0.937762C254.146 0.937762 257.071 1.20571 259.706 1.7416C262.386 2.23283 264.351 2.65708 265.601 3.01434L261.984 18.5552C261.135 18.3319 260.13 18.1086 258.969 17.8853C257.808 17.662 256.58 17.5504 255.285 17.5504C252.248 17.5504 250.127 18.2649 248.921 19.6939C247.716 21.0783 247.113 23.0432 247.113 25.5887V105.436H226.481ZM270.357 105.436V30.5457H291.056V105.436H270.357ZM280.673 20.9667C277.592 20.9667 274.957 19.9395 272.769 17.8853C270.58 15.8311 269.486 13.3526 269.486 10.4498C269.486 7.54708 270.58 5.09091 272.769 3.08132C274.957 1.02708 277.592 -4.66406e-05 280.673 -4.66406e-05C283.799 -4.66406e-05 286.456 1.02708 288.644 3.08132C290.832 5.09091 291.927 7.54708 291.927 10.4498C291.927 13.3526 290.832 15.8311 288.644 17.8853C286.456 19.9395 283.799 20.9667 280.673 20.9667ZM324.013 62.1632V105.436H303.314V30.5457H323.678V43.876H324.415C326.112 39.4549 328.814 35.9716 332.52 33.4261C336.227 30.8806 340.871 29.6079 346.453 29.6079C351.634 29.6079 356.144 30.7467 359.985 33.0242C363.87 35.3017 366.884 38.5394 369.028 42.7372C371.171 46.935 372.243 51.959 372.243 57.8091V105.436H351.544V61.4934C351.544 56.9383 350.361 53.3657 347.994 50.7756C345.627 48.1408 342.367 46.8234 338.214 46.8234C335.445 46.8234 332.989 47.4486 330.846 48.699C328.702 49.9048 327.027 51.6464 325.822 53.9239C324.616 56.2015 324.013 58.9479 324.013 62.1632Z" fill="white"/>
<path d="M405.803 106.843C401.07 106.843 396.805 106.017 393.009 104.365C389.258 102.668 386.31 100.167 384.167 96.8622C382.023 93.5575 380.951 89.449 380.951 84.5367C380.951 80.3389 381.711 76.8556 383.229 74.0868C384.747 71.2734 386.824 68.9959 389.459 67.2542C392.093 65.5126 395.086 64.1952 398.435 63.302C401.784 62.4089 405.334 61.7837 409.086 61.4264C413.417 61.0245 416.901 60.6226 419.536 60.2206C422.17 59.8187 424.091 59.2158 425.296 58.412C426.547 57.5635 427.172 56.3578 427.172 54.7948V54.4598C427.172 51.3785 426.189 48.9893 424.225 47.2923C422.304 45.5953 419.58 44.7468 416.052 44.7468C412.346 44.7468 409.376 45.573 407.143 47.2253C404.955 48.833 403.503 50.8872 402.789 53.388L383.564 51.8474C384.546 47.2923 386.467 43.3624 389.325 40.0578C392.183 36.7084 395.867 34.1406 400.377 32.3543C404.932 30.5234 410.202 29.6079 416.186 29.6079C420.339 29.6079 424.314 30.0991 428.11 31.0816C431.906 32.0641 435.277 33.5824 438.225 35.6367C441.217 37.6463 443.584 40.2587 445.325 43.4741C447.067 46.6894 447.938 50.5076 447.938 54.9287V105.436H428.177V94.9865H427.641C426.435 97.3534 424.827 99.43 422.818 101.216C420.808 102.958 418.397 104.342 415.583 105.369C412.77 106.352 409.51 106.843 405.803 106.843ZM411.765 92.508C414.802 92.508 417.481 91.9052 419.803 90.6994C422.17 89.449 424.001 87.7967 425.296 85.7424C426.636 83.6435 427.306 81.299 427.306 78.7089V70.7375C426.681 71.1394 425.788 71.519 424.626 71.8763C423.51 72.2335 422.26 72.5461 420.875 72.8141C419.491 73.082 418.106 73.3276 416.722 73.5509C415.338 73.7295 414.087 73.9082 412.971 74.0868C410.515 74.4441 408.371 75.0246 406.54 75.8285C404.709 76.5876 403.28 77.6371 402.253 78.9768C401.271 80.2719 400.779 81.9019 400.779 83.8668C400.779 86.6802 401.806 88.8238 403.861 90.2975C405.915 91.7712 408.55 92.508 411.765 92.508ZM480.761 62.1632V105.436H460.062V30.5457H480.426V43.876H481.163C482.86 39.4549 485.562 35.9716 489.268 33.4261C492.975 30.8806 497.619 29.6079 503.201 29.6079C508.382 29.6079 512.892 30.7467 516.733 33.0242C520.618 35.3017 523.632 38.5394 525.776 42.7372C527.919 46.935 528.991 51.959 528.991 57.8091V105.436H508.292V61.4934C508.292 56.9383 507.109 53.3657 504.742 50.7756C502.375 48.1408 499.115 46.8234 494.962 46.8234C492.193 46.8234 489.737 47.4486 487.594 48.699C485.45 49.9048 483.775 51.6464 482.57 53.9239C481.364 56.2015 480.761 58.9479 480.761 62.1632ZM574.944 106.91C567.307 106.91 560.743 105.28 555.25 102.02C549.757 98.7154 545.537 94.1827 542.589 88.4219C539.642 82.6164 538.168 75.9178 538.168 68.326C538.168 60.6449 539.642 53.9016 542.589 48.0961C545.581 42.2906 549.824 37.7579 555.317 34.4979C560.81 31.2379 567.352 29.6079 574.944 29.6079C581.464 29.6079 587.158 30.7913 592.025 33.1582C596.938 35.525 600.823 38.852 603.681 43.1391C606.539 47.4263 608.102 52.4726 608.37 58.278H588.81C588.453 55.7772 587.694 53.589 586.532 51.7134C585.371 49.8378 583.831 48.3864 581.91 47.3593C579.99 46.3321 577.757 45.8186 575.212 45.8186C571.996 45.8186 569.183 46.6894 566.771 48.4311C564.405 50.128 562.551 52.6512 561.212 56.0005C559.917 59.3052 559.269 63.3243 559.269 68.058C559.269 72.7917 559.917 76.8556 561.212 80.2495C562.551 83.6435 564.405 86.2337 566.771 88.02C569.183 89.8063 571.996 90.6994 575.212 90.6994C578.784 90.6994 581.799 89.583 584.255 87.3501C586.711 85.0726 588.229 81.9465 588.81 77.972H608.37C608.057 83.6882 606.517 88.7345 603.748 93.1109C600.979 97.4427 597.161 100.837 592.293 103.293C587.426 105.704 581.642 106.91 574.944 106.91ZM651.442 106.91C643.761 106.91 637.129 105.347 631.547 102.221C625.965 99.095 621.678 94.6516 618.686 88.8908C615.738 83.0853 614.265 76.2304 614.265 68.326C614.265 60.6449 615.738 53.9016 618.686 48.0961C621.678 42.2906 625.876 37.7579 631.279 34.4979C636.727 31.2379 643.114 29.6079 650.437 29.6079C655.394 29.6079 660.016 30.4117 664.304 32.0194C668.591 33.5824 672.342 35.9493 675.557 39.12C678.773 42.246 681.273 46.1982 683.06 50.9765C684.846 55.7102 685.739 61.2701 685.739 67.6561V73.283H622.504V60.4886H675.691L666.045 63.8379C666.045 60.042 665.465 56.7374 664.304 53.9239C663.142 51.1105 661.401 48.9446 659.079 47.4263C656.801 45.8632 653.965 45.0817 650.571 45.0817C647.177 45.0817 644.297 45.8632 641.93 47.4263C639.608 48.9893 637.822 51.1105 636.571 53.79C635.321 56.4694 634.696 59.5508 634.696 63.0341V72.0772C634.696 76.1411 635.41 79.6243 636.839 82.5271C638.268 85.3852 640.255 87.5957 642.801 89.1587C645.391 90.6771 648.361 91.4363 651.71 91.4363C654.032 91.4363 656.131 91.1013 658.007 90.4315C659.882 89.7616 661.49 88.7791 662.83 87.4841C664.214 86.189 665.241 84.626 665.911 82.795L685.069 84.0678C684.131 88.6675 682.167 92.6867 679.174 96.1253C676.227 99.5193 672.409 102.176 667.72 104.097C663.031 105.972 657.605 106.91 651.442 106.91Z" fill="white" fill-opacity="0.2"/>
</svg>
